<svg width="24" height="24" viewBox="0 0 24 24" fill="none" xmlns="http://www.w3.org/2000/svg">
<path d="M18 21H8.25C7.836 21 7.5 20.664 7.5 20.25C7.5 19.836 7.836 19.5 8.25 19.5H18C18.8273 19.5 19.5 18.8273 19.5 18V6C19.5 5.17275 18.8273 4.5 18 4.5H6C5.17275 4.5 4.5 5.17275 4.5 6V15.75C4.5 16.164 4.164 16.5 3.75 16.5C3.336 16.5 3 16.164 3 15.75V6C3 4.34588 4.34587 3 6 3H18C19.6541 3 21 4.34588 21 6V18C21 19.6541 19.6541 21 18 21Z" fill="#FFE8CA"/>
<path d="M10.875 8.25C10.875 7.836 11.211 7.5 11.625 7.5H15.75C16.164 7.5 16.5 7.836 16.5 8.25V12.375C16.5 12.789 16.164 13.125 15.75 13.125C15.336 13.125 15 12.789 15 12.375V10.0605L8.78025 16.2803C8.634 16.4269 8.442 16.5 8.25 16.5C8.058 16.5 7.866 16.4269 7.71975 16.2803C7.42688 15.9874 7.42688 15.5126 7.71975 15.2197L13.9395 9H11.625C11.211 9 10.875 8.664 10.875 8.25Z" fill="#FFE8CA"/>
</svg>
