<svg version="1.1"
     baseProfile="full"
     xmlns="http://www.w3.org/2000/svg"
>

    <symbol id="wpp" viewBox="0 0 20 20">
        <g clip-path="url(#clip0)">
            <path fill-rule="evenodd" clip-rule="evenodd" d="M11.6428 1.64921C9.857 1.29294 7.50345 1.43919 4.81023 3.25339C2.76631 4.6302 1.96338 6.66085 1.81282 8.72892C1.66084 10.8167 2.18362 12.8844 2.73106 14.1658C2.89379 14.5467 2.71692 14.9874 2.33601 15.1501C1.9551 15.3129 1.5144 15.136 1.35167 14.7551C0.730734 13.3017 0.143982 10.9937 0.316783 8.62001C0.491018 6.22666 1.4472 3.7102 3.9722 2.00932C7.01445 -0.0399938 9.77898 -0.252184 11.9363 0.1782C14.0454 0.59897 15.5269 1.62486 16.0733 2.00324L16.0898 2.01469C16.7235 2.45334 18.2371 3.95765 19.1834 6.13048C20.1469 8.34268 20.5366 11.2894 18.7913 14.5C17.1537 17.5123 14.5393 18.907 12.0577 19.4001C9.6094 19.8867 7.22685 19.5105 5.91949 18.9097C5.76236 18.8375 5.64916 18.8375 5.58781 18.8554L1.65344 19.9999C1.25572 20.1156 0.839503 19.887 0.723801 19.4892C0.608099 19.0915 0.836725 18.6753 1.23445 18.5596L5.16882 17.4151C5.67407 17.2681 6.16672 17.3726 6.54578 17.5468C7.53638 18.0019 9.59346 18.3605 11.7654 17.9289C13.9041 17.5039 16.0906 16.3273 17.4734 13.7836C18.9542 11.0597 18.627 8.6096 17.8082 6.72943C16.9721 4.80989 15.638 3.52624 15.236 3.24801L15.2287 3.24294C14.7208 2.89127 13.4464 2.00904 11.6428 1.64921Z"/>
            <path fill-rule="evenodd" clip-rule="evenodd" d="M5.13119 5.86725C5.56726 5.31067 6.29747 4.91706 7.07914 5.01286C7.40562 5.05287 7.71124 5.1976 7.96138 5.35829C8.22036 5.52465 8.46855 5.73941 8.68481 5.97736C9.0915 6.42485 9.50157 7.0866 9.50157 7.79149C9.50157 8.05291 9.41122 8.36912 9.31771 8.60934C9.22678 8.8429 9.06211 9.19059 8.80037 9.42235C8.49025 9.69694 8.01625 9.66813 7.74166 9.35801C7.47009 9.0513 7.49528 8.58429 7.79587 8.30843C7.79902 8.30433 7.81077 8.28911 7.82909 8.25787C7.85826 8.20811 7.89017 8.14153 7.91989 8.06518C7.94937 7.98946 7.97224 7.91558 7.98688 7.85518C7.99768 7.8106 8.00067 7.78706 8.00143 7.78218C7.99675 7.61922 7.87079 7.31195 7.57475 6.98621C7.43678 6.8344 7.28739 6.70815 7.15068 6.62033C7.00513 6.52684 6.91693 6.5042 6.89668 6.50172C6.72979 6.48127 6.48608 6.57009 6.31195 6.79235C6.15439 6.99344 6.11066 7.23062 6.22426 7.47052C6.45823 7.96465 7.10739 9.18415 8.14684 10.4074C9.18593 11.6302 10.5686 12.8024 12.2648 13.3112C12.4507 13.3531 12.698 13.3737 12.9324 13.3391C13.1737 13.3035 13.3437 13.2193 13.4501 13.1044C13.5252 13.0234 13.5767 12.882 13.5087 12.6447C13.4384 12.3998 13.2609 12.1564 13.045 12.0164C12.9227 11.9371 12.7654 11.8519 12.5335 11.7424C12.3506 11.656 12.1823 11.6192 12.0796 11.6213C12.0759 11.6327 12.0723 11.6451 12.0689 11.6586C11.9684 12.0604 11.5612 12.3048 11.1594 12.2043C10.7575 12.1038 10.5132 11.6966 10.6137 11.2948C10.6492 11.1528 10.698 11.021 10.7583 10.8999C11.0396 10.3337 11.5699 10.1391 12.0179 10.1225C12.4394 10.107 12.8557 10.2357 13.1739 10.386C13.4357 10.5096 13.6599 10.6274 13.8613 10.758C14.3863 11.0985 14.7824 11.6448 14.9506 12.2312C15.1209 12.8253 15.0756 13.5571 14.5505 14.1239C14.1419 14.5649 13.6129 14.7549 13.1515 14.823C12.691 14.891 12.2408 14.8475 11.8989 14.7661L11.8791 14.7614L11.8596 14.7556C9.76776 14.1358 8.14758 12.7248 7.00379 11.3787C5.8561 10.0281 5.14092 8.68766 4.86856 8.11246C4.47581 7.28302 4.67855 6.44498 5.13119 5.86725Z"/>
        </g>
        <defs>
            <clipPath id="clip0">
                <rect width="20" height="20" fill="white"/>
            </clipPath>
        </defs>
    </symbol>

    <symbol id="btn-arrow" viewBox="0 0 12 105">
        <path d="M6 0.226497L0.226497 6L6 11.7735L11.7735 6L6 0.226497ZM6 105L11.7735 95L0.226501 95L6 105ZM5 6L5 96L7 96L7 6L5 6Z" fill="#B997B8"/>
    </symbol>



    <symbol id="arrow-sm" width="12" height="71" viewBox="0 0 12 71" fill="none" xmlns="http://www.w3.org/2000/svg">
        <path d="M6 0.226497L0.226497 6L6 11.7735L11.7735 6L6 0.226497ZM6 71L11.7735 61L0.226497 61L6 71ZM5 6L5 62L7 62L7 6L5 6Z" fill="#4B693B"/>
    </symbol>

    <symbol id="share" viewBox="0 0 24 24">
       <path d="M18 21H8.25C7.836 21 7.5 20.664 7.5 20.25C7.5 19.836 7.836 19.5 8.25 19.5H18C18.8273 19.5 19.5 18.8273 19.5 18V6C19.5 5.17275 18.8273 4.5 18 4.5H6C5.17275 4.5 4.5 5.17275 4.5 6V15.75C4.5 16.164 4.164 16.5 3.75 16.5C3.336 16.5 3 16.164 3 15.75V6C3 4.34588 4.34587 3 6 3H18C19.6541 3 21 4.34588 21 6V18C21 19.6541 19.6541 21 18 21Z" fill="#FFE8CA"/>
<path d="M10.875 8.25C10.875 7.836 11.211 7.5 11.625 7.5H15.75C16.164 7.5 16.5 7.836 16.5 8.25V12.375C16.5 12.789 16.164 13.125 15.75 13.125C15.336 13.125 15 12.789 15 12.375V10.0605L8.78025 16.2803C8.634 16.4269 8.442 16.5 8.25 16.5C8.058 16.5 7.866 16.4269 7.71975 16.2803C7.42688 15.9874 7.42688 15.5126 7.71975 15.2197L13.9395 9H11.625C11.211 9 10.875 8.664 10.875 8.25Z" fill="#FFE8CA"/>
    </symbol>

</svg>
